<?xml version="1.0" encoding="utf-8"?>
<!-- Generator: Adobe Illustrator 19.1.0, SVG Export Plug-In . SVG Version: 6.00 Build 0)  -->
<!DOCTYPE svg PUBLIC "-//W3C//DTD SVG 1.1//EN" "http://www.w3.org/Graphics/SVG/1.1/DTD/svg11.dtd">
<svg version="1.1" id="Layer_1" xmlns="http://www.w3.org/2000/svg" xmlns:xlink="http://www.w3.org/1999/xlink" x="0px" y="0px"
	 width="216px" height="58px" viewBox="-391 472 216 58" style="enable-background:new -391 472 216 58;" xml:space="preserve">
<style type="text/css">
	.st0{fill:#313B45;}
</style>
<g>
	<path class="st0" d="M-382.7,496v25.1h7.1v-32.6C-379.6,488.8-382.7,492-382.7,496z"/>
	<path class="st0" d="M-358.6,494.9c0.7-0.1,2.1-0.1,3.4-0.1c1.3,0,2.7,0,3.4,0.1c1.4,0.3,2.3,1.4,2.3,3v23.3h7.1v-24.8
		c0-4.2-2-6.8-5.5-7.6c-1.2-0.2-3.6-0.4-7.2-0.4s-6.1,0.1-7.2,0.4c-3.7,0.7-5.7,3.4-5.7,7.6v24.9h7.1v-23.4
		C-360.9,496.3-360,495.2-358.6,494.9z"/>
	<path class="st0" d="M-302.2,495.3c0.7-0.2,2-0.2,3.4-0.2h4.6v-6.6h-4.6c-3.6,0-6,0.1-7.1,0.4c-3.6,0.7-5.5,3.4-5.5,7.6v24.7h7.1
		v-22.9C-304.4,496.8-303.6,495.7-302.2,495.3z"/>
	<path class="st0" d="M-291.6,513.4c0,4,1.6,6.5,4.7,7.5c1.9,0.6,5.2,0.6,7.8,0.6c4.6,0,6.5-0.2,7.3-0.4c3.7-0.8,5.7-3.5,5.7-7.8
		V500c0-1.2,0-2.8-0.1-4c-0.2-3.7-1.6-5.8-4.5-6.8c-1.8-0.6-4.9-0.6-7.6-0.6h-8.9v6.4h8.8c1.8,0,3,0,3.8,0.3
		c0.9,0.4,1.4,1.2,1.4,2.1v1.3c0,1.1-0.7,1.8-1.8,1.8h-3c-4.5,0-6.1,0.1-7.2,0.3c-2.4,0.3-6.4,1.8-6.4,8
		C-291.6,508.8-291.6,513.4-291.6,513.4z M-284.6,509.9c0-2.4,1.1-3.2,2.1-3.5c0.8-0.2,2.3-0.2,3.6-0.2h5.6v5.5
		c0,1.6-0.9,2.8-2.3,3.1c-0.6,0.1-1.9,0.1-3.6,0.1c-1.9,0-3.1,0-3.9-0.3c-0.8-0.4-1.6-1-1.6-2.8v-1.9H-284.6z"/>
	<path class="st0" d="M-252.7,489c-3.6,0.8-5.5,3.2-5.6,7.4c-0.1,2.5-0.1,5.3-0.1,8.6s0,6.1,0.1,8.6c0.1,4.2,1.9,6.6,5.6,7.4
		c1.2,0.2,3.5,0.4,7.1,0.4h7.8v-6.5h-7.8c-1.3,0-2.4,0-3.3-0.1c-1.4-0.3-2.2-1.2-2.3-2.8c-0.1-1.8-0.1-4-0.1-6.9s0-5.1,0.1-6.9
		c0.1-1.6,0.9-2.5,2.3-2.8c0.9-0.1,2.1-0.1,3.3-0.1h7.6v-6.5h-7.6C-249.2,488.6-251.6,488.7-252.7,489z"/>
	<path class="st0" d="M-231.1,509.7c0,1.2,0,3.8,0.1,5c0.4,3.5,1.9,5.4,5,6.3c1,0.3,3.6,0.5,6.8,0.5h4.5V515h-4.1
		c-1.4,0-2.9,0-3.8-0.4c-0.9-0.5-1.3-1.3-1.4-2.4c-0.1-0.8-0.1-2.2-0.1-3.1v-13.9h9.3v-6.6h-9.2v-8.9c-4,0.3-7.1,3.5-7.1,7.5V509.7z
		"/>
	<path class="st0" d="M-188.6,488.8c-1.2-0.2-3.5-0.4-7.1-0.4c-3.5,0-5.9,0.1-7.1,0.4c-3.6,0.8-5.5,3.2-5.6,7.4
		c-0.1,2.5-0.1,5.5-0.1,8.8s0,6.3,0.1,8.8c0.1,4.2,1.9,6.6,5.6,7.4c1.2,0.2,3.5,0.4,7.1,0.4s5.9-0.1,7.1-0.4
		c3.7-0.8,5.5-3.2,5.6-7.4c0.1-2.5,0.1-5.5,0.1-8.8c0-3.2,0-6.3-0.1-8.8C-183.1,491.9-185,489.5-188.6,488.8z M-190.1,512.1
		c-0.1,1.6-0.9,2.5-2.3,2.8c-0.9,0.1-2.1,0.1-3.3,0.1s-2.4,0-3.3-0.1c-1.4-0.3-2.2-1.2-2.3-2.8c-0.1-1.8-0.1-4.4-0.1-7.2
		c0-2.8,0-5.5,0.1-7.2c0.1-1.6,0.9-2.5,2.3-2.8c0.9-0.1,2.1-0.1,3.3-0.1s2.4,0,3.3,0.1c1.4,0.3,2.2,1.2,2.3,2.8
		c0.1,1.8,0.1,4.4,0.1,7.2C-190,507.7-190,510.4-190.1,512.1z"/>
	<path class="st0" d="M-334.8,487.1v22.5c0,1.2,0,3.8,0.1,5c0.4,3.5,1.9,5.4,5,6.3c1,0.3,3.6,0.5,6.8,0.5h4.5v-6.5h-4.1
		c-1.4,0-2.9,0-3.8-0.4c-0.9-0.5-1.3-1.3-1.4-2.4c-0.1-0.8-0.1-2.2-0.1-3.1v-13.9h9.3v-6.6h-9.3v-8.8
		C-331.7,479.9-334.8,483.2-334.8,487.1z"/>
</g>
<path class="st0" d="M-380.5,511.7"/>
</svg>
