<svg xmlns="http://www.w3.org/2000/svg" viewBox="0 0 216 58">
<g>
<path fill="#fff" d="M8.3,24v25.1h7.1V16.5C11.4,16.8,8.3,20,8.3,24z"/>
<path fill="#fff" d="M32.4,22.9c0.7-0.1,2.1-0.1,3.4-0.1s2.7,0,3.4,0.1c1.4,0.3,2.3,1.4,2.3,3v23.3h7.1V24.4
c0-4.2-2-6.8-5.5-7.6c-1.2-0.2-3.6-0.4-7.2-0.4c-3.6,0-6.1,0.1-7.2,0.4C25,17.5,23,20.2,23,24.4v24.9h7.1V25.9
C30.1,24.3,31,23.2,32.4,22.9z"/>
<path fill="#fff" d="M88.8,23.3c0.7-0.2,2-0.2,3.4-0.2h4.6v-6.6h-4.6c-3.6,0-6,0.1-7.1,0.4c-3.6,0.7-5.5,3.4-5.5,7.6v24.7h7.1
V26.3C86.6,24.8,87.4,23.7,88.8,23.3z"/>
<path fill="#fff" d="M99.4,41.4c0,4,1.6,6.5,4.7,7.5c1.9,0.6,5.2,0.6,7.8,0.6c4.6,0,6.5-0.2,7.3-0.4c3.7-0.8,5.7-3.5,5.7-7.8V28
c0-1.2,0-2.8-0.1-4c-0.2-3.7-1.6-5.8-4.5-6.8c-1.8-0.6-4.9-0.6-7.6-0.6h-8.9V23h8.8c1.8,0,3,0,3.8,0.3c0.9,0.4,1.4,1.2,1.4,2.1v1.3
c0,1.1-0.7,1.8-1.8,1.8h-3c-4.5,0-6.1,0.1-7.2,0.3c-2.4,0.3-6.4,1.8-6.4,8V41.4z M106.4,37.9c0-2.4,1.1-3.2,2.1-3.5
c0.8-0.2,2.3-0.2,3.6-0.2h5.6v5.5c0,1.6-0.9,2.8-2.3,3.1c-0.6,0.1-1.9,0.1-3.6,0.1c-1.9,0-3.1,0-3.9-0.3c-0.8-0.4-1.6-1-1.6-2.8
V37.9z"/>
<path fill="#fff" d="M138.3,17c-3.6,0.8-5.5,3.2-5.6,7.4c-0.1,2.5-0.1,5.3-0.1,8.6s0,6.1,0.1,8.6c0.1,4.2,1.9,6.6,5.6,7.4
c1.2,0.2,3.5,0.4,7.1,0.4h7.8v-6.5h-7.8c-1.3,0-2.4,0-3.3-0.1c-1.4-0.3-2.2-1.2-2.3-2.8c-0.1-1.8-0.1-4-0.1-6.9
c0-2.9,0-5.1,0.1-6.9c0.1-1.6,0.9-2.5,2.3-2.8c0.9-0.1,2.1-0.1,3.3-0.1h7.6v-6.5h-7.6C141.8,16.6,139.4,16.7,138.3,17z"/>
<path fill="#fff" d="M159.9,37.7c0,1.2,0,3.8,0.1,5c0.4,3.5,1.9,5.4,5,6.3c1,0.3,3.6,0.5,6.8,0.5h4.5v-6.5h-4.1
c-1.4,0-2.9,0-3.8-0.4c-0.9-0.5-1.3-1.3-1.4-2.4c-0.1-0.8-0.1-2.2-0.1-3.1V23.2h9.3v-6.6H167V7.7c-4,0.3-7.1,3.5-7.1,7.5V37.7z"/>
<path fill="#fff" d="M202.4,16.8c-1.2-0.2-3.5-0.4-7.1-0.4c-3.5,0-5.9,0.1-7.1,0.4c-3.6,0.8-5.5,3.2-5.6,7.4
c-0.1,2.5-0.1,5.5-0.1,8.8s0,6.3,0.1,8.8c0.1,4.2,1.9,6.6,5.6,7.4c1.2,0.2,3.5,0.4,7.1,0.4c3.6,0,5.9-0.1,7.1-0.4
c3.7-0.8,5.5-3.2,5.6-7.4c0.1-2.5,0.1-5.5,0.1-8.8c0-3.2,0-6.3-0.1-8.8C207.9,19.9,206,17.5,202.4,16.8z M200.9,40.1
c-0.1,1.6-0.9,2.5-2.3,2.8c-0.9,0.1-2.1,0.1-3.3,0.1s-2.4,0-3.3-0.1c-1.4-0.3-2.2-1.2-2.3-2.8c-0.1-1.8-0.1-4.4-0.1-7.2
s0-5.5,0.1-7.2c0.1-1.6,0.9-2.5,2.3-2.8c0.9-0.1,2.1-0.1,3.3-0.1s2.4,0,3.3,0.1c1.4,0.3,2.2,1.2,2.3,2.8c0.1,1.8,0.1,4.4,0.1,7.2
S201,38.4,200.9,40.1z"/>
<path fill="#fff" d="M56.2,15.1v22.5c0,1.2,0,3.8,0.1,5c0.4,3.5,1.9,5.4,5,6.3c1,0.3,3.6,0.5,6.8,0.5h4.5v-6.5h-4.1
c-1.4,0-2.9,0-3.8-0.4c-0.9-0.5-1.3-1.3-1.4-2.4c-0.1-0.8-0.1-2.2-0.1-3.1V23.1h9.3v-6.6h-9.3V7.7C59.3,7.9,56.2,11.2,56.2,15.1z"
/>
</g>
<path fill="#fff" d="M10.5,39.7"/>
</svg>